<svg xmlns="http://www.w3.org/2000/svg" viewBox="0 0 531 538">
  <defs/>
  <path fill="#fff" d="M531 538H0V0h531v538zM108.7 240.5v-.9h-37c-6.7 0-10.3 2.7-11.3 8.1-2.6 15.1-5 30.2-8.3 45.1-5 22.4-11.2 44.5-16.2 66.8-3.8 16.9-6.5 34-10.1 50.9-4.2 20-8.8 39.9-13.3 59.9l-4.6 20.4c-.7 3.3.7 4.4 4 4.4l133.9.7c26 .1 52 0 78 .2 2.4 0 5.7 1.1 6.9 2.8 3.2 5 5.7 10.5 8.1 15.9 1.9 4.2 2.9 8.9 5 13 .9 1.9 3.4 4 5.4 4.2 4.8.5 9.6-.1 14.4-.3 12.4-.5 24.9-1.3 37.3-1.5 6.9-.1 7.9-.7 10.7-7.1 3.2-7.3 6.9-14.3 10.2-21.6 1.8-4.1 4.8-5.5 9.1-5.3 22.1.9 44.2 1.7 66.3 2.3 9.5.3 19.2 1.1 28.4-.4 20.3-3.4 40.4-8.1 60.6-12.3l27.3-5.7c7-1.6 9-5.1 7.5-11.9-.6-2.7-.7-5.6-1.1-8.4-4.8-40.9-9.9-81.7-14.2-122.6-3.1-28.5-5.2-57.1-7.7-85.6-.6-6.8-2.6-9.4-9.3-11.1-2.9-.7-5.9-1.3-8.9-1.3-10.1-.1-20.2.3-30.4.2l-49.3-.5-49.4-.5c-1.8 0-3.6-.7-5.5-1.1.7-1.6 1.1-3.4 2.2-4.8 21.4-26.8 42.9-53.5 64.4-80.1 9.1-11.3 18.5-22.3 27.9-33.4 1.8-2.2 3.6-4.5 7.1-3 8.1 3.5 16.2 6.8 24.2 10.5 12.4 5.6 24.6 11.5 37 17.1 1 .5 2.4.2 3.6.3 0-1.2.1-2.5-.1-3.7-.2-1.1-.9-2.2-1.3-3.2-8.8-22.1-17.7-44.1-26.4-66.2-5.4-13.6-10.4-27.4-16-40.9a9.4 9.4 0 00-6.5-4.8c-9.3-.5-18.7-.6-28-.1-5 .3-7.9-1.2-9.7-5.7-.8-2-1.5-4.2-2.8-5.8-1.4-1.6-3.5-3.7-5.4-3.7-12.5-.5-25-.5-37.4-.6-3.7 0-5.1 1.6-4.9 5.7.9 18 1.4 36 1.9 54 .1 2.4-.4 5-1.3 7.2-4.9 12.2-10 24.3-15.2 36.3L315 213.1c-3.2 7.5-6.6 14.9-10.1 22.2-1.8 3.7-7.8 6.2-12.2 4.3-2-.9-3.2-4.4-4.1-7-.8-2.1-.6-4.6-.8-6.9l-8.8-73.4c-2.2-18.7-4.5-37.3-6.4-56-1.5-14.4-3-28.8-3.2-43.3-.2-14 1.1-28 1.9-41.9.2-4.2-1.2-6.4-5.6-6.3-1.6 0-3.3-.3-5-.3-10.3 0-20.6.3-30.9-.1-3.4-.1-5.3.7-7.1 3.2-4.4 5.9-8.9 11.6-13.1 17.6a12.3 12.3 0 01-9.5 5.5c-7.8.8-15.6 1.5-23.2 3-2.6.5-5.8 2.8-7 5.2-7.3 14.2-14 28.7-21 43-7.5 15.2-15.2 30.3-22.7 45.6-.6 1.3-.3 3-.4 4.5 1.4.1 2.9.5 4.1.1 21.8-7.1 43.6-14 65.2-21.5 5-1.7 7.1-.1 8.8 4l11.6 28.7 35.8 90.4c1.8 4.7 1 6.1-4 6.1-4.8 0-9.5-1.1-14.3-1-20.1.2-40.3.8-60.4 1-6.9.1-13.9-.9-20.8-.8-14.5.3-28.8 1-43.1 1.5z"/>
  <path d="M108.7 240.5c14.3-.5 28.6-1.2 42.9-1.5 6.9-.1 13.9.9 20.8.8 20.1-.2 40.3-.8 60.4-1 4.7 0 9.5 1.1 14.3 1 5 0 5.9-1.5 4-6.1l-35.8-90.4-11.6-28.7c-1.7-4.1-3.8-5.7-8.8-4-21.6 7.5-43.5 14.5-65.2 21.5-1.2.4-2.7-.1-4.1-.1.1-1.5-.3-3.3.4-4.5 7.5-15.2 15.2-30.3 22.7-45.6 7-14.3 13.7-28.8 21-43 1.2-2.4 4.4-4.7 7-5.2 7.6-1.5 15.5-2.3 23.2-3 4.1-.4 7.1-2.1 9.5-5.5 4.2-6 8.8-11.7 13.1-17.6 1.8-2.4 3.8-3.3 7.1-3.2 10.3.5 20.6.1 30.9.1 1.7 0 3.3.3 5 .3 4.4-.1 5.8 2.1 5.6 6.3-.8 14-2.2 28-1.9 41.9.2 14.4 1.8 28.9 3.2 43.3 1.9 18.7 4.2 37.4 6.4 56l8.8 73.4c.3 2.3.1 4.8.8 6.9.9 2.6 2.1 6.1 4.1 7 4.3 1.9 10.4-.6 12.2-4.3a489 489 0 0010.1-22.2c14.6-33.6 29.1-67.1 43.5-100.7 5.2-12.1 10.2-24.2 15.2-36.3.9-2.2 1.4-4.8 1.3-7.2-.5-18-1-36-1.9-54-.2-4.1 1.2-5.7 4.9-5.7 12.5.1 25 .1 37.4.6 1.9.1 4 2.1 5.4 3.7 1.3 1.6 2 3.8 2.8 5.8 1.8 4.4 4.7 6 9.7 5.7 9.3-.5 18.7-.5 28 .1 2.3.1 5.6 2.6 6.5 4.8 5.6 13.5 10.7 27.3 16 40.9 8.7 22.1 17.6 44.2 26.4 66.2.4 1.1 1.1 2.1 1.3 3.2.2 1.2.1 2.5.1 3.7-1.2-.1-2.5.1-3.6-.3-12.4-5.7-24.6-11.5-37-17.1-8-3.6-16.2-7-24.2-10.5-3.5-1.5-5.2.8-7.1 3-9.3 11.1-18.7 22.1-27.9 33.4-21.6 26.6-43 53.4-64.4 80.1-1.1 1.3-1.5 3.2-2.2 4.8 1.8.4 3.6 1 5.5 1.1l49.4.5 49.3.5c10.1 0 20.2-.3 30.4-.2 3 0 6 .6 8.9 1.3 6.7 1.7 8.7 4.3 9.3 11.1 2.5 28.5 4.7 57.1 7.7 85.6 4.4 40.9 9.5 81.7 14.2 122.6.3 2.8.4 5.6 1.1 8.4 1.5 6.8-.4 10.3-7.5 11.9l-27.3 5.7c-20.2 4.2-40.3 8.9-60.6 12.3-9.2 1.5-18.9.7-28.4.4-22.1-.6-44.2-1.5-66.3-2.3-4.3-.2-7.3 1.2-9.1 5.3-3.3 7.2-7 14.3-10.2 21.6-2.8 6.5-3.8 7-10.7 7.1-12.4.2-24.9 1-37.3 1.5-4.8.2-9.7.8-14.4.3-1.9-.2-4.4-2.3-5.4-4.2-2.1-4.1-3.1-8.8-5-13a108 108 0 00-8.1-15.9c-1.1-1.7-4.5-2.8-6.9-2.8-26-.2-52-.1-78-.2l-133.9-.7c-3.3 0-4.8-1.1-4-4.4l4.6-20.4c4.5-19.9 9.1-39.9 13.3-59.9 3.6-16.9 6.3-34.1 10.1-50.9 5.1-22.4 11.2-44.5 16.2-66.8 3.4-14.9 5.7-30 8.3-45.1.9-5.3 4.5-8.1 11.3-8.1h37c.2.3.2.6.2.9z"/>
</svg>
