<svg xmlns="http://www.w3.org/2000/svg" viewBox="0 0 56 707">
  <path d="M57 497H14c-3 0-5-1-5-5l-1-27c-1-4 1-6 5-6 10 0 11-1 12 9l1 7 1-5c-1-3 0-5 3-4h5c4-1 6 1 5 5 0 1 0 3 2 5l-2-18c0-2-2-3-4-3l-24 1c-2 0-4 0-4-3-1-8-3-17-1-26 3-12 12-18 22-12 7 4 11 2 15-2l4-3-31 1h-6c-3 0-4-1-4-4l-1-14c0-3 1-4 4-4l12-2v-1H12c-3 0-5-1-5-4v-13c0-3 1-4 4-4 6-2 13-1 20-1l15-1c6 0 7 1 7 6v15c-1 4-6 0-9 3l5 1c6 0 6 1 6 7-1 10 0 19 1 29 0 3-1 5-4 6l-9 6h9c3 0 4 1 4 3l1 12v46zm-6-122v-3c0-7-1-7-7-6h-9l-22 1c-3 0-4 2-4 4 1 4-2 9 2 13h4l8-1c3 0 4 1 4 4 1 3-1 3-3 3l-7 1c-8 0-8 0-8 8v6c0 3 2 4 5 4l33-2c4 0 6-1 6-6-1-3 1-7-1-9-2-3-6-2-9-2-2 0-3-1-3-3s2-3 3-3h3c4 0 5-1 5-5v-4zm-21 79h15l6-1c2 0 3-1 4-3 0-11-1-12-11-12-2 0-4 1-4-1-1-3 1-4 3-4 11-3 12-10 10-20 0-3-2-3-4-2l-9 8c-2 2-4 2-7 0-14-6-23-1-23 12v19c0 3 1 4 5 4h15zm14 41h4c7 0 7-1 6-7l-1-27c0-2 0-5-4-4-2 0-6-1-6 4l1 12c0 3 1 5-3 6-3 0-2-3-2-5l-1-2c0-5-4-5-7-5-4 0-2 4-3 6v2c1 2 0 3-2 4-2 0-3-1-3-3v-7c-1-9-1-9-10-9-3 0-4 1-4 4l2 25c0 2 1 3 3 4l30 2zM34 704c-7-2-14-2-21-2-5 0-7-1-6-6 0-11-3-13 12-12 1 0 3 1 4-2 0-2-2-3-4-3h-8c-3 0-4-1-4-4 2-15-2-13 14-13l11 1h11c-1-2-2-3-4-3l-25-11c-3-2-4-4-4-7 0-12 0-12 11-16l15-5 3-2c-5-1-10-2-16-1-13 1-14 0-13-13 1-7 4-10 10-13 5-3 5-3 0-6l-6-4c-3-1-4-4-4-7l1-13c0-2 1-2 3-2h37c3 0 4 1 4 4l1 2c1 10 1 10-10 11 5 3 5 7 5 12 1 5-3 7-7 10 10 1 10 1 10 11v18c0 4-1 7-6 8l-4 2c-2 2-2 7 2 8 9 3 8 10 7 17l-1 12c0 4-1 5-5 5l-5-1c-2 0-3 1-3 3s1 2 2 2c10 2 10 2 10 11v9H34zm-6-142H17c-2 0-3-1-4 1-3 5 0 16 5 19l7 3c2 2 3 3 0 5l-9 7c-3 2-5 12-4 15l2 1 34 2c2 0 4-2 4-4v-6c0-3-2-4-4-3-3 0-6 0-7-2-1-3 3-4 5-6l1-1c3-2 3-10-1-13-2-1-5-1-4-4 0-2 4-1 6-1h1c3 0 5-1 5-5-1-3 1-8-5-8H28zm-4 102c-14 0-13 0-14 10 0 3 1 4 3 4h9c3 0 3 3 3 5s-1 3-4 3h-8c-4 1-4 3-4 6 0 2-1 6 3 6l32 4 4-1c2-4 1-8 1-12-1-3-4-3-7-3s-5 0-5-4 3-4 5-4c5 0 7-1 6-5v-4c1-2-1-4-3-4-8 1-16 0-21-1zm-12-26c-2 6 1 8 6 10 9 2 17 7 25 11l4 3c2 1 4 0 4-2 0-5 0-10-6-12-3-1-5-3-4-7 0-4 2-7 5-7 5 0 6-3 6-7l-1-5c0-4-2-4-4-3l-29 10c-5 1-8 3-6 9zM2 292c14-5 28-8 41-14 6-3 7-2 7 5v1c2 9 1 15-10 16l-2 3c0 2 1 2 2 2l2 1c9 3 9 3 9 14l1 38c1 2 1 4-3 4l-37 1c-5 0-6-1-6-6l-1-25c-1-4 1-6 5-6h5c7 0 7 0 8 6 3-2 7-4 10-1 3 2 1 7 3 10l-1-10c0-5 0-6 6-6h7c-11-4-22-5-32-8l-7-2c-4 0-7-2-7-6v-17zm41-12l-4 2-21 7c-17 5-14 1-14 20 0 3 1 4 4 4l37 8c3 1 4 0 3-3-1-5-4-9-9-11-2 0-3-2-3-4s1-3 3-4c3-2 8-2 9-5s-1-6-2-10v-2c0-2-1-2-3-2zm-16 81l19-1c2 0 4-1 4-3l-1-27c-1-5-6-2-9-3-3 0-3 2-3 5l2 9c0 2 0 3-2 4-3 0-4-1-4-3v-5c-1-3-3-4-5-4-3 0-3 2-3 4l1 4c0 2-1 3-2 3-2 1-3-1-3-3v-6c-1-8-1-8-8-7-5 0-6 2-6 6l1 23c0 3 2 4 4 4h15zM39 4c8 6 10 10 7 18-3 9-9 14-18 15-1 0-2 0-3-2-1-3 0-9 3-11l2-2h-3l-3 4c-7 10-16 9-21-2l-1-2v-8c2-2 4-5 7-6 8-5 10-4 13 6 2-5 5-8 9-10h8zm6 13c0-7-5-12-12-11-5 1-8 5-10 10-1 2-1 5-4 5l-3-1c-2-3 1-4 2-6 1-3 2-5-2-6S6 12 4 15c-1 6 2 12 7 15 5 2 7 1 11-5l1-1c2-3 4-6 8-4s0 5-1 7c-2 2-1 4 0 5 0 2 2 1 3 1 7-2 12-8 12-16zM27 128l-19-1c-2 0-4 0-4-2-1-6-2-13 1-19 3-5 8-6 13-4 2 2 4 1 5-1l3-3c-5-2-10-2-15-1-6 1-7 1-7-6 0-11 0-10 10-10h27c4 0 6 1 5 5l1 1c0 9 0 9-11 10 12 4 12 13 13 22 1 7 0 8-7 8h-5c7 2 11 7 11 15 1 6 3 12-1 18l-1 6c1 4 0 7-4 7l-5 2-2 5 3 3c8 3 8 3 8 11v13c1 5 0 8-5 9l-4 2c8 2 7 2 7 10 0 4-1 5-5 5l-32-2c-2 0-3-1-3-4 0-5-1-11 1-16 2-8 7-12 15-13 3 0 6 1 8 4 3 3 5 3 9 1 1-2 3-2 5-3-1-2-3-2-4-2L8 188c-2-1-3-2-3-5 0-17-1-14 12-17l24-7-13-1H9c-4-1-5-2-5-5v-15c1-7 8-12 14-8 5 3 6 1 9-2zm-1 28h16c2 0 3-1 3-4 0-6-1-11-3-17-1-6-5-6-10-6-4 0-7 1-8 6l-1 3c-2 0-2-2-2-3-2-3-5-4-9-4-3 0-4 3-5 6l-1 15c0 3 1 4 4 4h16zM6 220v5c0 2 1 4 3 4l28 2c3 0 3-3 4-6 0-2 0-3-3-4-2-1-5 1-5-2 0-2 3-3 5-4l2-1c5-2 2-6 1-8-1-4-4-2-5-1-3 2-5 3-7 0-7-9-20-4-22 5l-1 10zM5 115c0 9 0 10 8 10h23c11 0 11 0 10-11-1-9-5-13-14-14-5 0-8 2-9 7l-1 3-2-2c-2-3-4-5-8-4-4 0-5 3-6 7l-1 4zm2 65c1 2-1 5 3 6l31 10c1 0 2 1 3-1 1-4-3-9-6-10-4-1-5-3-5-6 0-4 1-5 4-6l5-2c3-2 2-6 2-8s-2-2-4-2l-28 10c-3 2-5 5-5 9zm17-85h14c4 0 5-1 5-5-1-4 0-7-6-7l-22-1c-9 0-9 0-9 9v1c0 2 1 3 4 3h14zM45 517c6 3 7 14 4 21 4-1 5 2 5 6 1 14 1 14-13 15l-27-1c-3 0-3-2-4-3l1-17c0-4 4-5 7-6 4-2 4-4 0-6-8-3-10-9-10-17 1-11 0-11 11-11h31c4-1 6 0 5 5v2c1 10 1 10-10 12zm-13 40h16c1 0 3 0 3-2 1-4 2-8 0-12-1-3-5-2-7-3-1 0-3 1-3-1-1-2 1-2 2-3 3-2 5-4 4-8-2-3-1-8-4-10-1-1-4-1-3-3l4-1h2c7-1 7-1 8-8 0-5-2-6-6-6H15l-4 2c-2 8 1 18 7 22 9 6 9 6-1 11-2 1-5 1-5 5v13c0 3 2 4 4 4h16zM33 275l-26-1c-2 1-3-1-4-3-2-11 3-30 20-32 9-1 18 4 21 13 2 5 3 11 2 16 0 6-1 7-7 7h-6zM5 264c1 3-2 7 3 8 10 1 20 2 30 1 4 0 5-2 4-6l-1-11c-3-16-17-18-27-12-7 5-9 12-9 20zM5 64V41c0-3 1-4 4-4h3c9 0 9 0 10 9 0 3 2 4 5 4h12c7 0 5 5 5 8 0 4 3 10-4 10l-16 1c-3 1-4 1-4 5 1 4-1 5-5 5C5 80 5 80 5 69v-5zm1-6v14c0 5 3 5 6 5 3-1 7 1 7-5-1-3 1-5 4-5h7c9 0 9 0 11-9 1-5-1-6-5-6h-8c-8 0-8 0-8-7 0-5-2-6-6-6h-3c-4 0-5 1-5 5v14z"/>
</svg>
