<svg xmlns="http://www.w3.org/2000/svg" viewBox="0 0 105 111">
  <path d="M51.9 68.7c-8.9 9.6-18 18.2-25.4 28.1-3.2 4.3-5.7 8.7-10.6 11-5 2.3-12.6-1.4-13-6.9-.1-1.8 1.6-4 2.9-5.7 1-1.2 3.3-1.6 3.9-2.9C14.4 82 24.2 76.5 31.4 68.5l8.9-10.1c2.9-3 3.2-5.9.3-9.1L18.5 23.6a84.4 84.4 0 01-5.1-6.7c-1.9-2.8-2-5.7 1-7.9s6-1.7 8.5.9L41.2 29c3.8 4.1 7.4 8.5 11.6 13.4 2.2-2.4 4.2-4.5 6-6.8 8-10 15.8-20.2 23.9-30.1C87 .2 91.8.4 95.4 5.5c2.2 3 1.9 5.7-.4 8.6C85.2 26.5 75.7 39 65.6 51.2c-3.6 4.4-3.4 7.5-.4 12.2 7 10.7 16.9 18.2 26.3 26.4l2.2 2c4.4 4.1 5.5 7.8 3.2 10.7-2.3 2.9-7.9 3.5-11.8-.2-10.4-9.7-20.3-20-30.4-30.1-.7-.7-1.3-1.7-2.8-3.5z"/>
</svg>
